<svg width="26" height="26" viewBox="0 0 26 26" fill="none" xmlns="http://www.w3.org/2000/svg">
<path d="M13.533 0.836231C14.8631 0.815918 16.1834 0.82648 17.5029 0.815918C17.5468 2.46611 18.2163 3.95136 19.2815 5.05148L19.2798 5.04986C20.4263 6.08254 21.918 6.75204 23.5625 6.86579L23.5853 6.86742V10.9592C22.0318 10.9202 20.5709 10.5619 19.2538 9.94598L19.3205 9.97361C18.6835 9.66729 18.1448 9.35286 17.6329 9.00186L17.6752 9.02948C17.6654 11.9943 17.6849 14.9591 17.6548 17.9134C17.5712 19.4189 17.0707 20.792 16.2679 21.9385L16.2842 21.9133C14.9419 23.8357 12.7677 25.0975 10.2952 25.1722H10.2838C10.1839 25.1771 10.0661 25.1795 9.94747 25.1795C8.54185 25.1795 7.22804 24.7879 6.10841 24.1079L6.14091 24.1265C4.10316 22.9005 2.69754 20.8026 2.43754 18.3627L2.43429 18.3294C2.41397 17.8215 2.40422 17.3137 2.42454 16.8165C2.82266 12.9335 6.07591 9.92973 10.0303 9.92973C10.4748 9.92973 10.9103 9.96792 11.3336 10.0402L11.2881 10.0337C11.3084 11.536 11.2475 13.0392 11.2475 14.5415C10.9038 14.4172 10.5073 14.3449 10.0937 14.3449C8.57597 14.3449 7.28491 15.315 6.80716 16.6694L6.79985 16.6938C6.69179 17.0407 6.62922 17.4397 6.62922 17.8524C6.62922 18.0198 6.63979 18.1855 6.65929 18.348L6.65766 18.3285C6.92741 19.9909 8.35254 21.2454 10.071 21.2454C10.1205 21.2454 10.1693 21.2446 10.218 21.2422H10.2107C11.3994 21.2064 12.4313 20.567 13.0147 19.622L13.0228 19.6074C13.2397 19.3052 13.3884 18.9395 13.438 18.5422L13.4388 18.5309C13.5403 16.7133 13.4997 14.9063 13.5095 13.0887C13.5192 8.99698 13.4997 4.91498 13.5298 0.833793L13.533 0.836231Z" fill="white"/>
</svg>
