<svg width="732" height="814" viewBox="0 0 732 814" fill="none" xmlns="http://www.w3.org/2000/svg">
<g filter="url(#filter0_d_13_141)">
<path d="M421.956 164C416.623 164 411.29 164 405.956 164C406.382 177.788 406.785 191.662 407.165 205.494C407.366 212.829 407.562 220.215 407.751 227.5C407.802 228.408 407.739 230.288 409.855 232.367C410.887 233.34 412.364 233.906 413.491 234.006C413.762 234.036 414.089 234.045 414.251 234.042C414.391 234.04 414.526 234.034 414.654 234.024C414.912 234.005 415.146 233.973 415.36 233.933C417.039 233.573 417.629 233.073 418.201 232.712C418.336 232.618 418.465 232.523 418.577 232.437C418.637 232.39 418.695 232.343 418.752 232.297C418.866 232.204 418.975 232.113 419.079 232.021C419.289 231.839 419.485 231.657 419.677 231.47C419.87 231.284 420.059 231.094 420.249 230.897C420.396 230.743 420.511 230.618 420.644 230.474C420.903 230.191 421.167 229.894 421.44 229.58C422.054 228.875 422.393 228.454 422.881 227.856C423.34 227.291 423.867 226.629 424.252 226.133C426.014 223.875 427.727 221.568 429.325 219.382C432.616 214.88 435.866 210.291 439.007 205.815C445.383 196.727 451.62 187.667 457.886 178.573C464.154 169.472 470.362 160.437 476.679 151.351C479.822 146.833 482.95 142.356 486.156 137.857C487.746 135.626 489.388 133.347 490.952 131.23C491.339 130.707 491.812 130.076 492.199 129.563C492.397 129.3 492.589 129.048 492.772 128.808C492.97 128.549 493.219 128.228 493.423 127.968C493.854 127.42 494.161 127.027 494.636 126.467C494.847 126.22 494.977 126.068 495.149 125.885C495.247 125.781 495.308 125.728 495.254 125.77C495.224 125.791 495.166 125.838 495.027 125.921C495.047 125.907 494.827 126.051 494.519 126.163C494.198 126.271 493.658 126.465 492.734 126.305C491.808 126.179 490.707 125.315 490.359 124.555C489.971 123.795 489.975 123.302 489.966 123C478.612 185.147 464.185 249.519 453.808 313.56C453.647 314.717 453.521 315.667 453.378 316.829C453.227 318.057 453.104 319.177 453.011 320.185C452.897 321.427 452.815 322.563 452.801 323.694C452.796 324.454 452.82 325.081 452.925 325.682C452.989 326.017 453.065 326.379 453.31 326.825C453.518 327.241 454.188 327.964 455.119 328.027C455.979 328.088 456.519 327.723 456.84 327.474C457.17 327.204 457.377 326.946 457.58 326.669C477.714 299.527 498.556 272.317 519.459 245.462C529.937 232.037 540.501 218.646 551.25 205.488C556.671 198.867 562.08 192.349 567.703 185.984C570.386 182.967 573.429 179.589 576.327 176.899C576.753 176.507 577.142 176.168 577.486 175.884C577.658 175.742 577.819 175.614 577.967 175.502C578.182 175.338 578.414 175.175 578.574 175.077C578.737 174.975 578.855 174.919 578.884 174.908C578.893 174.898 578.923 174.918 578.677 174.94C578.463 174.968 577.882 174.862 577.515 174.472C577.125 174.03 577.171 173.916 577.119 173.778C577.093 173.658 577.099 173.615 577.098 173.627C577.098 173.64 577.093 173.705 577.075 173.807C577.066 173.855 577.051 173.931 577.04 173.978C577.032 174.011 577.024 174.046 577.014 174.083C576.94 174.38 576.809 174.792 576.618 175.297C576.526 175.542 576.403 175.849 576.297 176.103C576.219 176.292 576.134 176.49 576.044 176.696C575.681 177.523 575.223 178.494 574.667 179.606C552.763 223.92 532.909 270.15 512.856 314.3C512.792 314.394 512.709 314.479 512.574 314.798C512.514 314.966 512.408 315.203 512.434 315.7C512.427 316.177 512.868 317.026 513.462 317.309C514.034 317.609 514.409 317.564 514.631 317.552C514.858 317.529 514.981 317.49 515.079 317.459C515.27 317.395 515.354 317.347 515.343 317.354C515.393 317.331 515.433 317.31 515.469 317.29C515.542 317.251 515.6 317.217 515.657 317.182C515.767 317.115 515.886 317.036 515.989 316.966C516.113 316.881 516.249 316.786 516.401 316.677C516.754 316.422 516.947 316.279 517.236 316.064C517.873 315.589 518.264 315.29 518.875 314.823C519.382 314.435 519.903 314.033 520.467 313.597C520.962 313.213 521.488 312.804 522.044 312.371C524.126 310.747 526.215 309.103 528.329 307.433C532.483 304.151 536.665 300.826 540.827 297.508C551.632 288.892 562.49 280.183 573.211 271.558C573.624 271.225 573.888 270.742 573.945 270.215C574.002 269.687 573.847 269.159 573.514 268.746C573.182 268.333 572.698 268.068 572.171 268.012C571.644 267.955 571.115 268.109 570.702 268.442C570.702 268.442 570.702 268.442 570.702 268.442C559.988 277.062 549.131 285.77 538.333 294.38C534.174 297.696 529.996 301.019 525.85 304.294C523.74 305.96 521.655 307.601 519.584 309.217C519.032 309.647 518.509 310.054 518.018 310.434C517.458 310.867 516.943 311.265 516.443 311.647C515.843 312.106 515.457 312.401 514.845 312.857C514.57 313.062 514.384 313.2 514.07 313.426C513.937 313.522 513.824 313.601 513.736 313.661C513.663 313.711 513.591 313.758 513.57 313.77C513.559 313.777 513.559 313.776 513.582 313.764C513.594 313.757 513.612 313.748 513.642 313.734C513.637 313.738 513.676 313.711 513.841 313.655C513.926 313.629 514.037 313.592 514.255 313.57C514.468 313.559 514.835 313.514 515.403 313.811C515.992 314.091 516.43 314.935 516.423 315.407C516.448 315.897 516.344 316.126 516.288 316.284C516.16 316.582 516.095 316.641 516.056 316.7C537.065 270.921 556.276 225.789 578.245 181.394C578.824 180.236 579.31 179.209 579.708 178.301C579.807 178.074 579.901 177.854 579.99 177.642C580.109 177.356 580.25 177.003 580.361 176.708C580.589 176.102 580.766 175.562 580.893 175.059C580.909 174.996 580.924 174.934 580.938 174.872C580.958 174.785 580.991 174.632 581.012 174.513C581.057 174.263 581.088 174.015 581.096 173.753C581.104 173.491 581.091 173.212 581.02 172.894C580.913 172.552 580.937 172.314 580.351 171.651C579.132 170.446 577.528 171.143 577.408 171.19C577.069 171.326 576.768 171.49 576.462 171.68C576.162 171.865 575.828 172.102 575.545 172.318C575.35 172.467 575.149 172.627 574.942 172.797C574.528 173.138 574.089 173.523 573.621 173.953C570.479 176.875 567.438 180.266 564.709 183.332C559.019 189.773 553.594 196.312 548.153 202.956C537.371 216.154 526.795 229.561 516.305 243.002C495.366 269.904 474.573 297.047 454.333 324.331C454.266 324.429 454.227 324.446 454.337 324.354C454.437 324.281 454.78 323.996 455.468 324.042C455.795 324.063 456.186 324.231 456.402 324.411C456.629 324.592 456.736 324.759 456.796 324.863C456.907 325.075 456.874 325.073 456.863 324.98C456.829 324.807 456.793 324.35 456.801 323.733C456.811 322.798 456.886 321.729 456.994 320.554C457.082 319.595 457.201 318.513 457.348 317.317C457.487 316.183 457.612 315.251 457.77 314.112C468.129 250.003 483.34 187.721 496.947 123C496.937 122.622 496.931 122.071 496.52 121.269C496.15 120.467 495.016 119.578 494.045 119.444C493.078 119.275 492.482 119.478 492.096 119.61C491.9 119.682 491.748 119.755 491.618 119.824C491.558 119.855 491.478 119.901 491.455 119.914C491.44 119.923 491.425 119.932 491.411 119.94C491.183 120.078 491.023 120.197 490.88 120.309C490.599 120.532 490.385 120.734 490.161 120.956C490.031 121.086 489.986 121.133 489.921 121.199C489.859 121.263 489.797 121.328 489.733 121.395C489.607 121.529 489.477 121.67 489.343 121.818C488.729 122.506 488.385 122.912 487.896 123.497C487.666 123.773 487.391 124.108 487.174 124.374C486.971 124.622 486.761 124.879 486.545 125.147C486.124 125.668 485.618 126.306 485.203 126.83C483.527 128.949 481.794 131.2 480.115 133.398C476.733 137.827 473.441 142.205 470.129 146.619C463.476 155.495 456.923 164.285 450.294 173.112C443.67 181.93 437.054 190.691 430.316 199.411C426.996 203.701 423.565 208.093 420.145 212.321C418.485 214.367 416.715 216.523 414.984 218.524C414.603 218.961 414.098 219.541 413.672 220.015C413.222 220.514 412.903 220.857 412.403 221.384C411.94 221.865 411.668 222.13 411.272 222.483C411.198 222.547 411.143 222.588 411.119 222.603C411.107 222.61 411.102 222.611 411.108 222.604C411.115 222.596 411.121 222.586 411.212 222.52C411.412 222.414 411.696 222.066 413.139 221.749C413.324 221.715 413.53 221.686 413.76 221.669C413.875 221.66 413.996 221.654 414.123 221.653C414.269 221.65 414.568 221.658 414.819 221.686C415.858 221.776 417.262 222.311 418.236 223.23C420.234 225.201 420.111 226.883 420.162 227.5C420.351 220.215 420.546 212.829 420.748 205.494C421.128 191.662 421.531 177.788 421.956 164Z" fill="url(#paint0_linear_13_141)"/>
</g>
<g filter="url(#filter1_d_13_141)">
<path d="M431.193 644.084C430.582 644.617 430.015 645.218 429.656 645.922C429.297 646.627 429.174 647.377 429.333 648.086C429.491 648.795 429.921 649.422 430.546 649.907C431.171 650.391 431.939 650.694 432.719 650.916C432.719 650.916 432.719 650.916 432.719 650.916C434.881 651.437 436.928 651.38 438.763 650.839C453.202 646.497 466.884 640.561 480.029 633.551C507.258 618.976 531.8 599.345 551.722 575.68C585.112 536.076 601.415 484.067 601.165 433C601.164 433.083 601.163 433.215 601.13 433.454C601.113 433.575 601.087 433.723 601.037 433.912C601.012 434.007 600.981 434.113 600.939 434.231C600.919 434.29 600.896 434.352 600.869 434.418C600.853 434.458 600.853 434.459 600.818 434.541C600.784 434.618 600.746 434.699 600.702 434.785C600.39 435.426 599.521 436.601 597.967 437.075C597.223 437.309 596.45 437.321 595.854 437.219C595.715 437.197 595.526 437.153 595.464 437.137C595.386 437.117 595.311 437.095 595.24 437.073C595.096 437.028 594.965 436.98 594.846 436.93C593.901 436.512 593.602 436.144 593.383 435.935C593.277 435.823 593.216 435.747 593.194 435.719C593.163 435.682 593.139 435.65 593.12 435.623C593.081 435.57 593.059 435.537 593.047 435.518C593.023 435.48 593.042 435.509 593.056 435.536C593.087 435.589 593.173 435.76 593.23 435.886C593.293 436.021 593.366 436.186 593.445 436.377C593.729 437.056 594.019 437.862 594.297 438.708C594.843 440.376 595.305 442.045 595.743 443.828C596.597 447.311 597.269 450.922 597.792 454.541C598.835 461.794 599.292 469.156 599.248 476.539C599.152 491.29 597.03 506.01 593.098 520.289C589.21 534.416 583.843 548.04 577.161 561.13C573.839 567.649 570.174 574.043 566.3 580.31C564.364 583.453 562.351 586.585 560.355 589.787C559.335 591.443 558.346 593.018 557.345 594.984C557.088 595.501 556.857 595.983 556.597 596.653C556.477 596.971 556.366 597.276 556.236 597.754C556.119 598.234 556.018 598.573 555.98 599.451C555.971 599.849 555.997 600.296 556.102 600.79C556.228 601.397 556.503 602.11 556.961 602.741C557.852 604.036 559.402 604.652 560.133 604.781C561.794 605.075 562.426 604.865 563.264 604.74C600.743 582.277 621.044 548.99 639.104 513.707C653.551 482.954 656.709 447.134 652.235 415C652.072 412.541 651.207 411.869 650.712 411.108C650.144 410.389 649.631 409.883 649.093 409.379C648.055 408.421 647.034 407.633 646.022 406.886C643.991 405.4 641.954 404.085 639.913 402.808C636.068 400.386 630.964 397.52 628.579 395.877C629.17 396.427 629.539 397.426 629.548 398.009C629.58 398.543 629.487 398.896 629.419 399.115C629.302 399.456 629.242 399.507 629.246 399.508C629.25 399.497 629.387 399.313 629.564 399.119C629.899 398.745 630.384 398.275 630.865 397.838C631.849 396.942 632.941 396.036 634.052 395.141C636.262 393.364 638.586 391.602 640.914 389.849C645.692 386.08 649.934 383.733 655.406 378.107C656.149 377.243 656.344 375.292 655.949 374.441C655.644 373.555 655.142 373 654.833 372.691C654.572 372.433 654.325 372.236 654.083 372.063C653.962 371.977 653.841 371.897 653.723 371.822C653.636 371.767 653.548 371.714 653.46 371.662C652.715 371.232 652.135 370.985 651.497 370.721C650.337 370.252 649.209 369.879 648.085 369.529C645.862 368.842 643.693 368.271 641.523 367.725C637.152 366.631 632.841 365.676 628.501 364.744C624.167 363.814 619.838 362.927 615.516 362.04C613.348 361.594 611.204 361.155 609.072 360.703C607.968 360.469 606.924 360.244 605.88 360.006C605.608 359.944 605.354 359.884 605.12 359.829C604.863 359.768 604.579 359.698 604.358 359.642C604.165 359.593 603.847 359.508 603.691 359.461C603.622 359.441 603.499 359.401 603.491 359.398C603.486 359.397 603.504 359.402 603.568 359.431C603.598 359.448 603.742 359.498 604.051 359.716C604.209 359.834 604.43 359.995 604.729 360.371C605.011 360.736 605.452 361.433 605.46 362.5C605.398 363.655 605.191 363.765 605.13 363.967C605.052 364.127 605.017 364.178 604.998 364.209C604.966 364.259 604.996 364.213 605.006 364.199C605.036 364.155 605.094 364.075 605.171 363.973C605.339 363.752 605.435 363.63 605.608 363.41C612.778 354.641 620.4 345.81 627.784 336.969C631.502 332.533 635.173 328.13 638.866 323.628C640.698 321.393 642.514 319.16 644.334 316.87C645.24 315.729 646.168 314.548 647.024 313.419C647.526 312.758 647.874 312.292 648.389 311.574C648.502 311.414 648.609 311.261 648.709 311.114C648.806 310.974 648.967 310.735 649.08 310.56C649.14 310.467 649.197 310.375 649.252 310.284C649.28 310.239 649.307 310.194 649.334 310.148C649.366 310.093 649.421 309.998 649.464 309.92C649.554 309.755 649.642 309.586 649.738 309.35C649.762 309.29 649.786 309.226 649.811 309.153C649.837 309.061 649.851 309.087 649.943 308.656C649.987 308.296 650.15 307.688 649.648 306.646C649.15 305.535 647.612 304.945 646.956 305.023C624.694 309.241 604.319 314.515 583.469 317.987C583.418 317.992 583.287 317.996 583.295 317.997C583.297 317.998 583.322 317.998 583.403 318.011C583.427 318.015 583.434 318.016 583.488 318.028C583.59 318.053 583.745 318.081 584.028 318.238C584.288 318.385 584.809 318.776 584.999 319.534C585.188 320.294 584.894 320.917 584.716 321.173C593.88 307.984 603.338 294.595 612.672 281.379C612.899 281.058 612.989 280.657 612.924 280.267C612.859 279.877 612.645 279.529 612.326 279.298C612.007 279.067 611.61 278.973 611.219 279.033C610.828 279.094 610.475 279.304 610.241 279.621C610.241 279.621 610.241 279.621 610.241 279.621C600.591 292.671 590.908 305.629 581.197 318.827C580.999 319.113 580.698 319.764 580.892 320.549C581.089 321.332 581.628 321.743 581.92 321.908C582.236 322.085 582.435 322.127 582.594 322.165C582.68 322.184 582.696 322.186 582.743 322.194C582.903 322.219 583.025 322.228 583.141 322.233C583.362 322.243 583.615 322.232 583.704 322.229C605.447 319.233 626.925 314.473 646.956 310.977C646.353 311.055 644.851 310.484 644.372 309.409C643.889 308.403 644.055 307.85 644.086 307.563C644.158 307.225 644.162 307.269 644.178 307.207C644.193 307.164 644.205 307.131 644.216 307.105C644.258 307.001 644.266 306.993 644.251 307.016C644.202 307.098 644.161 307.16 644.08 307.279C644.009 307.385 643.885 307.561 643.806 307.671C643.723 307.784 643.631 307.909 643.531 308.043C643.073 308.657 642.731 309.089 642.244 309.705C641.405 310.758 640.473 311.893 639.56 312.993C637.723 315.204 635.875 317.382 634.011 319.566C630.252 323.967 626.51 328.293 622.729 332.663C615.182 341.417 607.617 349.977 600.128 359.055C600.035 359.172 599.947 359.283 599.864 359.388C599.779 359.498 599.718 359.575 599.59 359.743C599.479 359.889 599.379 360.023 599.283 360.159C599.233 360.232 599.203 360.266 599.054 360.5C598.99 360.605 598.919 360.718 598.818 360.926C598.734 361.177 598.515 361.322 598.453 362.5C598.461 363.584 598.909 364.299 599.206 364.683C599.52 365.078 599.763 365.259 599.951 365.399C600.14 365.534 600.282 365.615 600.403 365.68C600.515 365.741 600.66 365.808 600.668 365.811C600.822 365.881 600.949 365.931 601.072 365.976C601.314 366.066 601.555 366.14 601.681 366.177C601.97 366.265 602.376 366.374 602.607 366.434C602.875 366.504 603.197 366.584 603.48 366.653C603.739 366.715 604.012 366.78 604.301 366.848C605.407 367.105 606.474 367.34 607.596 367.583C609.763 368.052 611.911 368.503 614.079 368.959C618.399 369.865 622.702 370.768 626.991 371.709C631.282 372.651 635.535 373.615 639.758 374.692C641.849 375.229 643.929 375.79 645.931 376.419C646.936 376.736 647.926 377.074 648.757 377.416C648.983 377.51 649.183 377.598 649.349 377.676C649.513 377.753 649.707 377.855 649.79 377.906C649.875 377.95 649.928 378.019 649.727 377.832C649.625 377.724 649.32 377.435 649.086 376.771C648.776 376.152 648.95 374.508 649.507 373.893C646.773 376.55 640.993 380.609 636.519 383.979C634.159 385.738 631.786 387.518 629.442 389.384C628.258 390.33 627.082 391.29 625.894 392.36C625.308 392.891 624.69 393.47 624.071 394.149C623.732 394.527 623.408 394.896 623.021 395.483C622.839 395.77 622.571 396.198 622.359 396.846C622.226 397.266 622.105 397.8 622.147 398.495C622.167 399.26 622.608 400.441 623.334 401.123C628.528 405.021 631.868 406.487 635.933 409.15C637.879 410.38 639.798 411.637 641.555 412.938C642.424 413.583 643.272 414.257 643.954 414.895C644.301 415.22 644.593 415.531 644.761 415.75C644.841 415.851 644.885 415.932 644.859 415.889C644.844 415.839 644.694 415.643 644.678 415C648.982 448.17 645.605 480.947 631.809 510.293C615.466 543.607 590.229 578.472 561.649 596.26C561.523 596.283 561.454 596.288 561.465 596.286C561.458 596.289 561.601 596.263 561.965 596.338C562.273 596.383 563.333 596.763 563.977 597.693C564.301 598.14 564.483 598.631 564.557 598.99C564.62 599.285 564.628 599.511 564.624 599.668C564.578 600.237 564.58 599.947 564.671 599.768C564.767 599.523 564.905 599.224 565.08 598.879C565.786 597.499 566.746 595.951 567.724 594.388C569.665 591.306 571.736 588.116 573.727 584.919C577.721 578.526 581.553 571.915 585.031 565.168C592.03 551.613 597.695 537.433 601.815 522.711C606.014 507.717 608.322 492.22 608.487 476.617C608.566 468.804 608.116 461 607.03 453.228C606.484 449.346 605.778 445.458 604.852 441.612C604.373 439.638 603.87 437.777 603.229 435.792C602.898 434.777 602.552 433.79 602.134 432.774C601.894 432.198 601.682 431.706 601.314 431.021C601.27 430.939 601.232 430.871 601.176 430.774C601.107 430.656 601.035 430.537 600.955 430.413C600.876 430.29 600.789 430.162 600.687 430.024C600.636 429.956 600.582 429.884 600.522 429.81C600.487 429.767 600.477 429.754 600.413 429.678C600.35 429.605 600.281 429.528 600.204 429.446C599.882 429.129 599.491 428.691 598.466 428.239C598.336 428.185 598.196 428.133 598.043 428.085C597.966 428.061 597.886 428.038 597.804 428.017C597.738 428 597.538 427.954 597.392 427.93C596.764 427.823 595.961 427.837 595.19 428.079C593.581 428.57 592.666 429.789 592.317 430.503C592.269 430.597 592.226 430.688 592.188 430.775C592.148 430.868 592.148 430.869 592.13 430.915C592.099 430.99 592.073 431.062 592.049 431.131C592 431.27 591.962 431.397 591.931 431.515C591.869 431.751 591.833 431.951 591.808 432.129C591.758 432.484 591.749 432.755 591.748 433C591.833 482.045 575.927 531.883 544.191 569.32C525.05 591.964 501.48 610.768 475.32 624.747C462.717 631.463 449.493 637.175 435.923 641.251C434.237 641.75 432.508 642.75 431.193 644.084Z" fill="#00FF90"/>
</g>
<g filter="url(#filter2_d_13_141)">
<path d="M621.956 227C621.956 227 688.456 170 681.956 178C675.456 186 635.594 244.5 635.594 244.5" stroke="#00FF90" stroke-width="4" stroke-linecap="round"/>
</g>
<g filter="url(#filter3_d_13_141)">
<path d="M425.759 126.097C425.519 126.414 425.416 126.814 425.471 127.208C425.526 127.602 425.735 127.958 426.053 128.197C426.371 128.437 426.77 128.541 427.164 128.486C427.558 128.43 427.914 128.221 428.154 127.903C428.154 127.903 428.154 127.903 428.154 127.903C431.536 123.438 434.988 118.963 438.477 114.566C440.222 112.37 441.994 110.17 443.783 108.038C444.684 106.965 445.597 105.898 446.521 104.88C446.973 104.383 447.432 103.89 447.917 103.415C448.025 103.31 448.145 103.195 448.265 103.087C448.386 102.977 448.463 102.909 448.588 102.809C448.685 102.729 448.793 102.664 448.752 102.688C448.735 102.696 448.703 102.711 448.641 102.73C448.576 102.747 448.343 102.827 447.973 102.737C447.791 102.692 447.577 102.588 447.415 102.445C447.264 102.315 447.155 102.16 447.088 102.027C446.956 101.753 446.959 101.584 446.956 101.5C445.853 111.584 444.53 122.349 443.821 132.861C443.472 138.23 443.174 143.619 443.459 149.088C443.619 150.966 443.655 152.789 444.83 154.907C445.152 155.421 445.646 156.023 446.444 156.378C447.24 156.743 448.159 156.677 448.798 156.461C450.107 155.992 450.823 155.317 451.606 154.464L451.687 154.357C472.956 124.174 493.996 93.493 516.863 64.6407C517.203 64.2352 517.632 63.7323 517.979 63.3359C518.158 63.1315 518.331 62.937 518.496 62.7527C518.669 62.5604 518.903 62.3038 519.088 62.1064C519.48 61.6907 519.768 61.3891 520.204 60.9929C520.4 60.8201 520.496 60.7384 520.657 60.6309C520.703 60.5936 520.7 60.6448 520.404 60.6941C520.327 60.6994 520.254 60.7232 519.994 60.6765C519.764 60.6334 519.477 60.4852 519.295 60.2863C518.921 59.864 518.96 59.5634 518.95 59.5C513.723 103.378 505.981 147.517 499.504 191.829C499.48 192.062 499.461 192.117 499.451 192.5C499.454 192.752 499.468 193.09 499.641 193.574C499.805 194.044 500.225 194.71 500.903 195.118C501.575 195.536 502.303 195.602 502.762 195.558C503.236 195.513 503.526 195.4 503.743 195.308C503.885 195.244 503.853 195.257 503.894 195.237C503.922 195.224 503.948 195.21 503.973 195.197C504.023 195.17 504.069 195.145 504.11 195.12C504.193 195.071 504.263 195.025 504.324 194.983C504.565 194.814 504.701 194.689 504.833 194.567C505.051 194.361 505.117 194.289 505.254 194.145C505.533 193.843 505.677 193.676 505.88 193.44C505.976 193.328 506.084 193.199 506.178 193.087C506.26 192.989 506.345 192.887 506.432 192.782C506.602 192.576 506.799 192.334 506.97 192.121C507.634 191.3 508.315 190.434 508.981 189.582C510.315 187.874 511.598 186.211 512.904 184.518C515.514 181.134 518.101 177.779 520.709 174.429C523.311 171.088 525.931 167.744 528.563 164.481C529.872 162.86 531.217 161.216 532.546 159.676C533.189 158.934 533.862 158.172 534.522 157.492C534.668 157.342 534.835 157.174 534.987 157.029C535.14 156.884 535.244 156.791 535.367 156.689C535.417 156.648 535.449 156.626 535.448 156.627C535.453 156.623 535.415 156.666 535.179 156.785C535.055 156.843 534.903 156.915 534.604 156.994C534.145 157.112 533.154 157.272 531.999 156.692C530.768 156.02 530.406 155.21 530.178 154.646C529.973 154.07 529.97 153.718 529.965 153.5C529.965 153.492 529.956 153.679 529.94 153.837C529.926 153.99 529.905 154.184 529.877 154.409C528.833 161.614 527.177 169.441 525.734 177.017C524.995 180.833 524.257 184.651 523.554 188.5C523.201 190.435 522.86 192.357 522.544 194.325C522.384 195.329 522.237 196.286 522.103 197.361C522.042 197.851 521.974 198.457 521.935 199.014C521.922 199.193 521.913 199.368 521.906 199.543C521.903 199.631 521.901 199.719 521.9 199.809C521.899 199.854 521.899 199.896 521.899 199.946C521.899 200.015 521.9 200.085 521.902 200.157C521.906 200.301 521.913 200.453 521.929 200.624C521.937 200.709 521.947 200.8 521.961 200.899C521.968 200.948 521.975 201 521.984 201.054C521.994 201.107 522.001 201.157 522.032 201.3C522.194 201.778 522.164 202.582 523.593 203.877C523.906 204.139 524.575 204.565 525.346 204.736C526.11 204.92 526.894 204.862 527.476 204.701C528.66 204.355 529.144 203.849 529.487 203.531C566.215 163.596 602.189 123.164 639.466 84.9869C640.227 84.2538 640.885 83.6349 641.5 83.0842C641.887 82.7377 642.203 82.4709 642.403 82.3128C642.462 82.2611 642.697 82.0993 642.547 82.1972C642.473 82.2384 642.339 82.33 641.946 82.4779C641.897 82.4962 641.842 82.515 641.782 82.5344C641.71 82.5549 641.715 82.5641 641.378 82.6437C640.843 82.7418 639.82 82.9695 638.293 82.2932C636.719 81.6363 635.666 79.7617 635.557 78.7654C635.381 77.7136 635.526 77.2073 635.589 76.8767C613.72 130.56 589.926 187.167 566.911 242.24C566.086 244.236 565.444 245.799 564.648 247.782C564.465 248.238 564.307 248.636 564.133 249.075C563.918 249.619 563.725 250.116 563.552 250.567C563.378 251.025 563.245 251.37 563.011 252.021C562.912 252.298 562.827 252.546 562.753 252.778C562.71 252.918 562.704 252.907 562.579 253.373C562.533 253.574 562.477 253.747 562.441 254.214C562.439 254.466 562.379 254.773 562.602 255.544C562.728 255.924 562.956 256.488 563.566 257.062C564.157 257.645 565.19 258.025 565.956 258C578.11 252.675 583.685 248.093 592.525 243.313C594.895 241.965 597.269 240.615 599.616 239.341C600.826 238.686 601.949 238.09 603.131 237.515C603.705 237.237 604.268 236.977 604.777 236.773C604.981 236.689 605.278 236.588 605.339 236.571C605.369 236.556 605.387 236.575 605.075 236.579C604.867 236.57 604.483 236.577 603.847 236.273C603.586 236.161 602.928 235.703 602.599 235.138C602.236 234.565 602.121 233.929 602.126 233.5C601.053 237.877 598.443 245.506 596.463 251.576C595.451 254.649 594.442 257.74 593.492 260.869C593.023 262.42 592.553 264.022 592.134 265.651C591.928 266.456 591.719 267.326 591.559 268.186C591.466 268.694 591.397 269.096 591.347 269.712C591.329 269.96 591.304 270.368 591.353 270.828C591.372 270.992 591.424 271.491 591.678 272.031C591.744 272.171 591.826 272.321 591.932 272.477C592.026 272.619 592.26 272.912 592.513 273.116C593.028 273.563 593.83 273.831 594.456 273.815C607.175 270.746 616.984 267.1 628.165 263.704C631.054 262.797 633.943 261.881 636.84 260.98C638.253 260.541 639.751 260.081 641.146 259.668C641.905 259.445 642.607 259.242 643.296 259.054C643.642 258.96 644.017 258.862 644.326 258.788C644.513 258.744 644.667 258.711 644.771 258.69C644.843 258.676 644.908 258.666 644.897 258.666C644.89 258.665 644.878 258.667 644.808 258.666C644.721 258.659 644.591 258.681 644.196 258.554C644 258.482 643.703 258.364 643.362 258.02C643.018 257.692 642.728 257.038 642.746 256.5C640.882 259.963 637.704 266.763 635.142 271.901C633.834 274.57 632.543 277.242 631.298 279.976C630.682 281.331 630.071 282.712 629.499 284.135C629.216 284.843 628.93 285.593 628.689 286.338C628.55 286.777 628.444 287.121 628.336 287.643C628.295 287.853 628.233 288.193 628.232 288.576C628.235 288.711 628.23 289.129 628.422 289.6C628.472 289.721 628.536 289.85 628.623 289.983C628.716 290.128 628.891 290.341 629.089 290.497C629.493 290.83 630.05 290.98 630.456 290.972C655.488 285.558 678.792 279.393 702.948 273.825C705.129 273.32 707.242 272.838 709.397 272.367C710.436 272.14 711.598 271.892 712.563 271.699C713.183 271.576 713.62 271.492 714.168 271.396C714.46 271.346 714.706 271.308 714.896 271.282C715.016 271.265 715.176 271.248 715.231 271.244C715.262 271.242 715.277 271.242 715.261 271.242C715.249 271.233 715.281 271.274 714.909 271.183C714.738 271.113 714.321 271.052 713.887 270.372C713.685 270.038 713.607 269.563 713.666 269.217C713.72 268.865 713.847 268.639 713.944 268.492C693.008 293.166 671.274 318.843 649.579 342.976C649.438 343.099 649.289 343.243 649.145 343.491C649.018 343.739 648.824 344.104 649.018 344.745C649.211 345.307 649.666 345.561 649.802 345.632C649.939 345.704 650.061 345.749 650.178 345.785C650.717 345.932 650.865 345.92 651.209 345.954C651.556 345.977 651.732 345.979 652.023 345.983C652.156 345.984 652.31 345.983 652.439 345.982C652.557 345.98 652.678 345.978 652.803 345.975C653.877 345.946 654.838 345.878 655.811 345.801C657.785 345.642 659.766 345.431 661.715 345.211C665.613 344.769 669.519 344.265 673.403 343.762C677.295 343.257 681.17 342.744 685.063 342.262C687.012 342.023 688.921 341.795 690.875 341.594C691.851 341.495 692.843 341.403 693.756 341.341C694.295 341.306 694.662 341.284 695.189 341.276C695.303 341.275 695.408 341.275 695.503 341.277C695.597 341.278 695.743 341.284 695.826 341.291C695.914 341.298 695.981 341.307 696.005 341.312C696.002 341.309 695.957 341.307 695.826 341.222C695.819 341.218 695.521 341.022 695.438 340.643C695.348 340.254 695.519 339.951 695.596 339.855C687.976 348.08 679.492 355.422 671.629 364.724C671.537 365.002 671.579 365.269 671.645 365.449C671.695 365.585 671.751 365.681 671.812 365.772C674.979 368.588 677.967 369.563 681.094 371.253C682.645 372.028 684.196 372.792 685.741 373.568C686.504 373.951 687.282 374.346 688.037 374.747C688.406 374.943 688.793 375.154 689.143 375.357C689.333 375.469 689.483 375.558 689.659 375.677C689.735 375.728 689.805 375.778 689.854 375.82C689.872 375.832 689.895 375.861 689.86 375.818C689.843 375.793 689.803 375.746 689.768 375.623C689.743 375.544 689.722 375.336 689.808 375.158C689.891 374.976 690.036 374.872 690.122 374.831C683.433 381.06 677.855 386.926 671.918 393.731C673.778 400.769 677.171 405.497 680.015 411.235C680.077 411.351 680.184 411.438 680.31 411.476C680.437 411.514 680.573 411.501 680.69 411.439C680.806 411.377 680.893 411.272 680.932 411.145C680.971 411.019 680.959 410.882 680.898 410.765C680.898 410.765 680.898 410.765 680.898 410.765C678.109 405.347 674.831 399.148 672.995 394.269C678.452 388.224 684.914 381.646 690.791 376.169C690.909 376.112 691.076 375.987 691.17 375.781C691.267 375.58 691.246 375.338 691.214 375.234C691.169 375.073 691.106 374.985 691.054 374.914C690.928 374.757 690.898 374.743 690.833 374.683C690.702 374.571 690.61 374.507 690.508 374.435C690.281 374.28 690.12 374.181 689.913 374.057C689.535 373.831 689.138 373.609 688.761 373.403C687.992 372.984 687.212 372.576 686.449 372.181C684.903 371.382 683.362 370.602 681.825 369.81C678.871 368.24 675.309 366.589 673.257 364.803C673.255 364.802 673.267 364.814 673.285 364.864C673.31 364.927 673.346 365.09 673.283 365.276C680.438 357.413 689.298 349.555 697.317 341.145C697.448 340.976 697.639 340.607 697.535 340.16C697.447 339.726 697.067 339.457 697.039 339.443C696.838 339.309 696.69 339.266 696.552 339.227C696.222 339.15 696.186 339.159 696.012 339.139C695.87 339.125 695.673 339.116 695.555 339.113C695.436 339.109 695.31 339.108 695.177 339.108C694.573 339.111 694.19 339.128 693.622 339.159C692.667 339.212 691.655 339.294 690.663 339.384C688.678 339.564 686.756 339.77 684.796 339.988C680.882 340.425 677 340.893 673.104 341.353C669.219 341.81 665.315 342.267 661.441 342.662C659.506 342.858 657.541 343.044 655.616 343.177C654.67 343.241 653.735 343.296 652.75 343.311C652.528 343.314 652.303 343.315 652.057 343.311C651.811 343.305 651.661 343.3 651.413 343.281C651.196 343.264 651.025 343.234 650.977 343.218C650.978 343.218 651 343.223 651.055 343.251C651.09 343.274 651.4 343.412 651.566 343.872C651.723 344.393 651.559 344.678 651.486 344.827C651.397 344.977 651.341 345.015 651.334 345.024C673.965 320.456 695.197 295.866 716.969 270.508C717.075 270.346 717.208 270.107 717.264 269.743C717.325 269.384 717.244 268.897 717.036 268.554C716.591 267.853 716.146 267.775 715.933 267.693C715.485 267.576 715.318 267.613 715.303 267.605C715.194 267.603 715.098 267.607 715.001 267.613C714.819 267.623 714.582 267.65 714.422 267.671C714.169 267.703 713.884 267.746 713.561 267.8C712.958 267.9 712.502 267.985 711.858 268.108C710.858 268.301 709.676 268.544 708.623 268.767C706.44 269.229 704.314 269.7 702.12 270.192C678.16 275.59 653.572 281.898 630.456 287.028C630.754 287.02 631.221 287.141 631.552 287.416C631.716 287.543 631.855 287.715 631.925 287.825C631.992 287.927 632.039 288.022 632.073 288.104C632.201 288.438 632.173 288.564 632.178 288.577C632.175 288.641 632.185 288.514 632.206 288.42C632.258 288.17 632.336 287.897 632.447 287.553C632.642 286.955 632.904 286.268 633.169 285.611C633.706 284.286 634.303 282.944 634.908 281.625C636.133 278.957 637.421 276.314 638.73 273.67C641.444 267.934 644.135 264.028 647.166 256.5C647.184 255.947 646.889 255.28 646.534 254.94C646.182 254.584 645.868 254.457 645.65 254.377C645.211 254.235 645.015 254.249 644.841 254.241C644.691 254.24 644.616 254.245 644.521 254.252C644.347 254.265 644.172 254.29 644.032 254.311C643.829 254.342 643.615 254.382 643.378 254.43C642.99 254.507 642.574 254.601 642.197 254.689C641.447 254.865 640.715 255.048 639.928 255.251C638.481 255.622 636.951 256.035 635.51 256.43C632.558 257.24 629.634 258.07 626.718 258.918C615.949 262.017 603.896 265.786 594.456 268.185C594.972 268.169 595.678 268.403 596.113 268.783C596.328 268.957 596.518 269.196 596.591 269.307C596.674 269.429 596.735 269.541 596.781 269.64C596.96 270.033 596.956 270.221 596.964 270.25C596.974 270.365 596.969 270.259 596.98 270.169C597.004 269.932 597.053 269.638 597.128 269.266C597.261 268.62 597.458 267.846 597.659 267.118C598.068 265.637 598.549 264.099 599.032 262.605C600.012 259.584 601.071 256.544 602.141 253.515C604.331 246.905 606.831 242.073 608.786 233.5C608.791 232.967 608.653 232.242 608.245 231.598C607.876 230.962 607.129 230.437 606.81 230.299C606.051 229.934 605.499 229.911 605.081 229.902C604.426 229.911 604.166 229.979 603.794 230.057C603.494 230.126 603.296 230.183 603.051 230.258C602.934 230.295 602.816 230.334 602.697 230.374C602.604 230.406 602.51 230.438 602.415 230.472C601.611 230.764 600.943 231.053 600.263 231.357C598.886 231.979 597.684 232.577 596.396 233.237C593.907 234.517 591.47 235.86 589.062 237.229C584.878 239.612 580.754 242.038 576.634 244.463C574.576 245.674 572.522 246.885 570.469 248.082C569.474 248.661 568.407 249.279 567.415 249.84C566.879 250.142 566.415 250.402 565.901 250.678C565.688 250.793 565.398 250.945 565.21 251.038C565.131 251.077 564.99 251.144 564.946 251.163C564.925 251.173 564.903 251.181 564.943 251.165C564.972 251.155 565.027 251.134 565.155 251.1C565.291 251.07 565.473 251.007 565.956 251C566.714 250.975 567.74 251.352 568.325 251.929C568.928 252.497 569.152 253.054 569.273 253.422C569.489 254.17 569.427 254.443 569.428 254.65C569.397 255.026 569.367 255.065 569.366 255.086C569.36 255.107 569.39 255.004 569.391 255.001C569.399 254.977 569.408 254.948 569.418 254.916C569.46 254.786 569.523 254.6 569.604 254.373C569.645 254.259 569.69 254.134 569.739 253.999C569.763 253.935 569.793 253.854 569.814 253.798C569.831 253.754 569.847 253.709 569.865 253.663C569.933 253.479 570.008 253.282 570.089 253.071C570.251 252.648 570.436 252.172 570.644 251.646C570.812 251.222 570.966 250.833 571.145 250.387C571.925 248.445 572.562 246.895 573.38 244.914C596.503 189.458 622.145 136.256 645.324 79.1233C645.416 78.6653 645.568 78.0573 645.378 76.9289C645.255 75.856 644.165 73.9299 642.534 73.2463C640.95 72.5432 639.849 72.7687 639.215 72.8888C639.132 72.9073 639.055 72.9262 638.981 72.946C638.945 72.9559 638.91 72.9657 638.875 72.9757C638.858 72.9806 638.852 72.9825 638.841 72.9858C638.799 72.9981 638.76 73.0104 638.721 73.0228C638.644 73.0476 638.572 73.0725 638.504 73.0973C637.969 73.2978 637.661 73.4776 637.383 73.6419C637.11 73.8067 636.887 73.961 636.67 74.1186C636.571 74.1904 636.427 74.2996 636.378 74.3369C636.324 74.3789 636.269 74.4215 636.214 74.4644C635.779 74.8077 635.334 75.1874 634.843 75.6246C634.072 76.3131 633.347 76.9965 632.524 77.7898C594.555 116.666 559.09 157.651 523.426 197.469C523.7 197.22 524.122 196.756 525.249 196.425C525.804 196.271 526.561 196.214 527.301 196.392C528.048 196.558 528.692 196.969 528.991 197.22C530.355 198.463 530.275 199.156 530.401 199.467C530.48 199.872 530.456 199.878 530.461 199.907C530.459 199.901 530.458 199.765 530.47 199.568C530.486 199.258 530.532 198.773 530.578 198.364C530.68 197.46 530.804 196.561 530.943 195.615C531.217 193.75 531.527 191.864 531.849 189.96C532.493 186.166 533.179 182.358 533.869 178.542C535.227 170.865 536.744 163.413 537.824 155.328C537.856 155.039 537.883 154.769 537.903 154.51C537.924 154.245 537.95 153.854 537.947 153.5C537.842 152.778 538.171 151.188 535.638 149.594C534.373 148.957 533.242 149.113 532.611 149.275C532.207 149.382 531.957 149.492 531.717 149.606C530.739 150.122 530.598 150.323 530.222 150.621C529.848 150.945 529.687 151.105 529.432 151.356C529.313 151.474 529.194 151.596 529.073 151.722C528.966 151.833 528.874 151.931 528.773 152.039C527.928 152.951 527.216 153.805 526.536 154.637C525.142 156.349 523.815 158.09 522.535 159.806C519.968 163.252 517.487 166.743 515.033 170.226C512.576 173.717 510.153 177.202 507.702 180.683C506.476 182.423 505.27 184.128 504.023 185.848C503.402 186.705 502.766 187.57 502.169 188.359C501.825 188.811 501.578 189.135 501.232 189.563C501.076 189.755 500.958 189.9 500.811 190.067C500.749 190.136 500.707 190.181 500.7 190.19C500.705 190.188 500.733 190.155 500.884 190.048C500.923 190.021 500.972 189.989 501.035 189.952C501.067 189.933 501.102 189.913 501.143 189.891C501.164 189.88 501.185 189.869 501.208 189.858C501.243 189.841 501.215 189.853 501.338 189.797C501.527 189.718 501.793 189.611 502.246 189.568C502.684 189.526 503.395 189.589 504.053 189.998C504.716 190.398 505.126 191.049 505.283 191.5C505.448 191.965 505.458 192.278 505.461 192.5C505.452 192.788 505.453 192.609 505.469 192.477C510.835 148.281 516.851 104.186 521.963 59.5C521.952 59.1985 521.945 58.7316 521.479 58.2122C521.019 57.6667 520.109 57.6673 520.027 57.7066C519.542 57.7797 519.297 57.9378 519.048 58.087C518.939 58.1545 518.769 58.2782 518.735 58.3051C518.676 58.3499 518.617 58.3963 518.557 58.4444C518.439 58.5408 518.319 58.6442 518.195 58.7556C517.625 59.276 517.325 59.5983 516.894 60.0558C516.693 60.271 516.443 60.5451 516.261 60.7486C516.086 60.9437 515.906 61.1481 515.72 61.3615C515.358 61.7754 514.915 62.2945 514.566 62.7107C491.466 91.8582 470.539 122.401 449.225 152.643L449.307 152.536C448.92 152.984 448.252 153.502 447.881 153.605C447.688 153.662 447.667 153.636 447.656 153.634C447.64 153.633 447.511 153.542 447.376 153.321C446.795 152.353 446.552 150.565 446.454 148.912C446.181 143.725 446.467 138.367 446.814 133.065C447.523 122.538 448.809 112.325 449.956 101.5C449.953 101.293 449.938 101.027 449.77 100.682C449.686 100.513 449.555 100.328 449.377 100.176C449.187 100.008 448.938 99.8854 448.716 99.8307C448.272 99.7181 447.913 99.8168 447.767 99.8602C447.639 99.8993 447.535 99.9436 447.442 99.989C447.033 100.201 446.93 100.303 446.722 100.46C446.506 100.633 446.408 100.722 446.247 100.867C446.092 101.008 445.948 101.145 445.822 101.268C445.259 101.82 444.777 102.339 444.3 102.863C443.331 103.93 442.401 105.018 441.485 106.109C439.668 108.275 437.883 110.491 436.128 112.7C432.617 117.125 429.161 121.605 425.759 126.097Z" fill="#FF00EE"/>
</g>
<g filter="url(#filter4_d_13_141)">
<path d="M358.962 764V795C358.962 795 354.456 805.174 292.456 774.5C230.456 743.826 252.047 664.158 211.254 624.415C170.461 584.673 42.3795 622 17.4564 527.5C-7.46672 433 118.242 384.714 137.461 333.713C156.681 282.713 109.461 185.213 160.961 146.713C212.461 108.213 278.456 133 278.456 133L270.456 155C270.456 155 216.456 134 178.456 165.5C140.456 197 187.461 277.049 160.961 347.5C134.461 417.951 29.4967 448.286 48.4564 517.5C67.4162 586.714 195.709 552.5 238.456 599C281.203 645.5 269.956 730.636 312.456 749C354.956 767.364 358.962 764 358.962 764Z" fill="#FF00EE"/>
</g>
<g filter="url(#filter5_d_13_141)">
<path d="M27.9059 312.725C57.1455 221.725 157.406 254.765 208.906 215.725C247.29 186.627 255.313 163.24 263.906 153.725C266.842 150.473 265.745 150.5 270.456 150.5C283.711 155.31 304.956 153 292.956 159C280.956 165 276.406 193.725 224.406 236.725C172.406 279.725 78.7213 256.501 63.9059 327.225C49.0905 397.949 149.568 426.225 161.406 485.225C173.244 544.225 122.227 626.724 155.906 674.724C189.585 722.724 278.406 636.724 344.406 644.224C410.406 651.724 439.906 708.224 494.906 708.224C602.916 708.224 667.906 605.725 667.906 605.725C667.906 605.725 620.906 730.224 491.906 733.224C406.252 735.216 392.906 686.724 337.406 686.724C281.906 686.724 208.906 777.328 134.406 713.224C59.906 649.119 133.837 550.225 120.906 500.225C107.975 450.225 -1.33362 403.725 27.9059 312.725Z" fill="#41FFF5"/>
</g>
<g filter="url(#filter6_d_13_141)">
<path fill-rule="evenodd" clip-rule="evenodd" d="M291.956 145.009L263.456 152.695L337.456 175C346.938 206.38 365.314 268.756 366.956 277.5C368.101 268.726 386.992 206.017 396.956 175L401.956 173.5L404.456 158.5L420.956 153L425.456 166.5L497.456 145.009L396.956 115.126L366.956 14L337.456 115.126L277.956 132.996L291.956 145.009ZM351.956 128.573L366.956 72.2935L381.956 128.573L437.456 145.009L381.956 159.951L366.956 211L351.956 159.951L291.956 145.009L351.956 128.573Z" fill="url(#paint1_linear_13_141)"/>
</g>
<path d="M420.956 152.5L403.956 158.5L401.456 173L401.956 173.5L425.456 166.5V166L420.956 152.5Z" fill="url(#paint2_linear_13_141)"/>
<path d="M237.956 145.009L277.956 133H278.456L291.956 144.5V145V145.5L264.456 153L237.956 145.009Z" fill="url(#paint3_linear_13_141)"/>
<path d="M212.456 158.902L225.215 181M183.456 171L207.956 207.5" stroke="url(#paint4_linear_13_141)" stroke-width="5" stroke-linecap="round"/>
<path d="M169.456 200.5L185.456 218.5" stroke="url(#paint5_linear_13_141)" stroke-width="5" stroke-linecap="round"/>
<path d="M101.956 286.5L135.456 307" stroke="url(#paint6_linear_13_141)" stroke-width="5" stroke-linecap="round"/>
<path d="M75.9563 312L129.456 334" stroke="url(#paint7_linear_13_141)" stroke-width="5" stroke-linecap="round"/>
<path d="M66.9563 342L114.956 357" stroke="url(#paint8_linear_13_141)" stroke-width="5" stroke-linecap="round"/>
<path d="M77.9563 372.5L92.9563 376.5" stroke="url(#paint9_linear_13_141)" stroke-width="5" stroke-linecap="round"/>
<path d="M71.9563 459.5H85.9563" stroke="url(#paint10_linear_13_141)" stroke-width="5" stroke-linecap="round"/>
<path d="M59.4563 489L104.456 481.5" stroke="url(#paint11_linear_13_141)" stroke-width="5" stroke-linecap="round"/>
<path d="M58.9563 525L116.456 506.5" stroke="url(#paint12_linear_13_141)" stroke-width="5" stroke-linecap="round"/>
<path d="M83.9563 550L114.956 536.5" stroke="url(#paint13_linear_13_141)" stroke-width="5" stroke-linecap="round"/>
<path d="M147.956 622.5L159.956 613" stroke="url(#paint14_linear_13_141)" stroke-width="5" stroke-linecap="round"/>
<path d="M151.956 656L186.956 616.5" stroke="url(#paint15_linear_13_141)" stroke-width="5" stroke-linecap="round"/>
<path d="M174.956 683L208.956 631.5" stroke="url(#paint16_linear_13_141)" stroke-width="5" stroke-linecap="round"/>
<path d="M213.456 680.5L222.956 658" stroke="url(#paint17_linear_13_141)" stroke-width="5" stroke-linecap="round"/>
<path d="M299.456 724.5L303.456 701.5" stroke="url(#paint18_linear_13_141)" stroke-width="5" stroke-linecap="round"/>
<path d="M324.456 745.5L331.456 690.5" stroke="url(#paint19_linear_13_141)" stroke-width="5" stroke-linecap="round"/>
<path d="M352.456 750.5L356.456 696" stroke="url(#paint20_linear_13_141)" stroke-width="5" stroke-linecap="round"/>
<g filter="url(#filter7_d_13_141)">
<path d="M384.456 792V741.5C384.456 741.5 416.456 772.5 504.956 751C593.456 729.5 640.956 644 640.956 644" stroke="#41FFF5" stroke-width="7" stroke-linecap="round"/>
</g>
<g filter="url(#filter8_d_13_141)">
<path d="M438.659 664.675C438.307 664.587 437.928 664.582 437.581 664.706C437.234 664.829 436.95 665.066 436.784 665.378C436.619 665.691 436.581 666.059 436.674 666.415C436.767 666.772 436.984 667.083 437.254 667.325C437.254 667.325 437.254 667.325 437.254 667.325C442.89 671.87 449.137 675.171 455.755 677.913C478.769 687.297 504.965 687.754 528.813 681.671C528.889 681.652 528.964 681.633 529.04 681.614C584.471 670.108 637.66 630.011 660.75 578.004C680.361 537.287 684.358 493.262 683.618 450.629C683.43 443.916 683.099 437.09 682.455 430.447C682.415 430.064 682.24 429.702 681.952 429.44C681.664 429.179 681.289 429.039 680.905 429.053C680.522 429.066 680.157 429.232 679.888 429.513C679.619 429.794 679.471 430.168 679.457 430.553C679.457 430.553 679.457 430.553 679.457 430.553C679.153 437.053 678.573 443.834 677.882 450.407C673.193 492.123 664.321 534.351 644.163 568.996C618.058 615.827 574.719 645.806 522.873 657.386C522.806 657.403 522.74 657.42 522.674 657.437C501.671 662.698 480.656 666.552 458.198 666.409C451.745 666.319 445.092 665.946 438.659 664.675Z" fill="#FF00EE"/>
</g>
<defs>
<filter id="filter0_d_13_141" x="391.956" y="105.38" width="203.142" height="236.654" filterUnits="userSpaceOnUse" color-interpolation-filters="sRGB">
<feFlood flood-opacity="0" result="BackgroundImageFix"/>
<feColorMatrix in="SourceAlpha" type="matrix" values="0 0 0 0 0 0 0 0 0 0 0 0 0 0 0 0 0 0 127 0" result="hardAlpha"/>
<feOffset/>
<feGaussianBlur stdDeviation="7"/>
<feComposite in2="hardAlpha" operator="out"/>
<feColorMatrix type="matrix" values="0 0 0 0 0 0 0 0 0 1 0 0 0 0 0.566667 0 0 0 1 0"/>
<feBlend mode="normal" in2="BackgroundImageFix" result="effect1_dropShadow_13_141"/>
<feBlend mode="normal" in="SourceGraphic" in2="effect1_dropShadow_13_141" result="shape"/>
</filter>
<filter id="filter1_d_13_141" x="415.265" y="265.015" width="254.885" height="400.262" filterUnits="userSpaceOnUse" color-interpolation-filters="sRGB">
<feFlood flood-opacity="0" result="BackgroundImageFix"/>
<feColorMatrix in="SourceAlpha" type="matrix" values="0 0 0 0 0 0 0 0 0 0 0 0 0 0 0 0 0 0 127 0" result="hardAlpha"/>
<feOffset/>
<feGaussianBlur stdDeviation="7"/>
<feComposite in2="hardAlpha" operator="out"/>
<feColorMatrix type="matrix" values="0 0 0 0 0 0 0 0 0 1 0 0 0 0 0.566667 0 0 0 1 0"/>
<feBlend mode="normal" in2="BackgroundImageFix" result="effect1_dropShadow_13_141"/>
<feBlend mode="normal" in="SourceGraphic" in2="effect1_dropShadow_13_141" result="shape"/>
</filter>
<filter id="filter2_d_13_141" x="605.956" y="161.231" width="92.4473" height="99.2695" filterUnits="userSpaceOnUse" color-interpolation-filters="sRGB">
<feFlood flood-opacity="0" result="BackgroundImageFix"/>
<feColorMatrix in="SourceAlpha" type="matrix" values="0 0 0 0 0 0 0 0 0 0 0 0 0 0 0 0 0 0 127 0" result="hardAlpha"/>
<feOffset/>
<feGaussianBlur stdDeviation="7"/>
<feComposite in2="hardAlpha" operator="out"/>
<feColorMatrix type="matrix" values="0 0 0 0 0 0 0 0 0 1 0 0 0 0 0.566667 0 0 0 1 0"/>
<feBlend mode="normal" in2="BackgroundImageFix" result="effect1_dropShadow_13_141"/>
<feBlend mode="normal" in="SourceGraphic" in2="effect1_dropShadow_13_141" result="shape"/>
</filter>
<filter id="filter3_d_13_141" x="411.456" y="43.6916" width="319.827" height="381.806" filterUnits="userSpaceOnUse" color-interpolation-filters="sRGB">
<feFlood flood-opacity="0" result="BackgroundImageFix"/>
<feColorMatrix in="SourceAlpha" type="matrix" values="0 0 0 0 0 0 0 0 0 0 0 0 0 0 0 0 0 0 127 0" result="hardAlpha"/>
<feOffset/>
<feGaussianBlur stdDeviation="7"/>
<feComposite in2="hardAlpha" operator="out"/>
<feColorMatrix type="matrix" values="0 0 0 0 0.860577 0 0 0 0 0 0 0 0 0 0.415946 0 0 0 1 0"/>
<feBlend mode="normal" in2="BackgroundImageFix" result="effect1_dropShadow_13_141"/>
<feBlend mode="normal" in="SourceGraphic" in2="effect1_dropShadow_13_141" result="shape"/>
</filter>
<filter id="filter4_d_13_141" x="-2.86102e-06" y="110.947" width="373.162" height="699.871" filterUnits="userSpaceOnUse" color-interpolation-filters="sRGB">
<feFlood flood-opacity="0" result="BackgroundImageFix"/>
<feColorMatrix in="SourceAlpha" type="matrix" values="0 0 0 0 0 0 0 0 0 0 0 0 0 0 0 0 0 0 127 0" result="hardAlpha"/>
<feOffset/>
<feGaussianBlur stdDeviation="7.1"/>
<feComposite in2="hardAlpha" operator="out"/>
<feColorMatrix type="matrix" values="0 0 0 0 1 0 0 0 0 0.294118 0 0 0 0 0.929412 0 0 0 1 0"/>
<feBlend mode="normal" in2="BackgroundImageFix" result="effect1_dropShadow_13_141"/>
<feBlend mode="normal" in="SourceGraphic" in2="effect1_dropShadow_13_141" result="shape"/>
</filter>
<filter id="filter5_d_13_141" x="8.75634" y="136.3" width="673.35" height="614.062" filterUnits="userSpaceOnUse" color-interpolation-filters="sRGB">
<feFlood flood-opacity="0" result="BackgroundImageFix"/>
<feColorMatrix in="SourceAlpha" type="matrix" values="0 0 0 0 0 0 0 0 0 0 0 0 0 0 0 0 0 0 127 0" result="hardAlpha"/>
<feOffset/>
<feGaussianBlur stdDeviation="7.1"/>
<feComposite in2="hardAlpha" operator="out"/>
<feColorMatrix type="matrix" values="0 0 0 0 0.254902 0 0 0 0 1 0 0 0 0 0.960784 0 0 0 1 0"/>
<feBlend mode="normal" in2="BackgroundImageFix" result="effect1_dropShadow_13_141"/>
<feBlend mode="normal" in="SourceGraphic" in2="effect1_dropShadow_13_141" result="shape"/>
</filter>
<filter id="filter6_d_13_141" x="249.456" y="0" width="262" height="291.5" filterUnits="userSpaceOnUse" color-interpolation-filters="sRGB">
<feFlood flood-opacity="0" result="BackgroundImageFix"/>
<feColorMatrix in="SourceAlpha" type="matrix" values="0 0 0 0 0 0 0 0 0 0 0 0 0 0 0 0 0 0 127 0" result="hardAlpha"/>
<feOffset/>
<feGaussianBlur stdDeviation="7"/>
<feComposite in2="hardAlpha" operator="out"/>
<feColorMatrix type="matrix" values="0 0 0 0 0.152941 0 0 0 0 0.72549 0 0 0 0 0.717647 0 0 0 1 0"/>
<feBlend mode="normal" in2="BackgroundImageFix" result="effect1_dropShadow_13_141"/>
<feBlend mode="normal" in="SourceGraphic" in2="effect1_dropShadow_13_141" result="shape"/>
</filter>
<filter id="filter7_d_13_141" x="366.756" y="630.299" width="291.901" height="183.401" filterUnits="userSpaceOnUse" color-interpolation-filters="sRGB">
<feFlood flood-opacity="0" result="BackgroundImageFix"/>
<feColorMatrix in="SourceAlpha" type="matrix" values="0 0 0 0 0 0 0 0 0 0 0 0 0 0 0 0 0 0 127 0" result="hardAlpha"/>
<feOffset dy="4"/>
<feGaussianBlur stdDeviation="7.1"/>
<feComposite in2="hardAlpha" operator="out"/>
<feColorMatrix type="matrix" values="0 0 0 0 0.254902 0 0 0 0 1 0 0 0 0 0.960784 0 0 0 1 0"/>
<feBlend mode="normal" in2="BackgroundImageFix" result="effect1_dropShadow_13_141"/>
<feBlend mode="normal" in="SourceGraphic" in2="effect1_dropShadow_13_141" result="shape"/>
</filter>
<filter id="filter8_d_13_141" x="422.624" y="415.052" width="275.076" height="284.648" filterUnits="userSpaceOnUse" color-interpolation-filters="sRGB">
<feFlood flood-opacity="0" result="BackgroundImageFix"/>
<feColorMatrix in="SourceAlpha" type="matrix" values="0 0 0 0 0 0 0 0 0 0 0 0 0 0 0 0 0 0 127 0" result="hardAlpha"/>
<feOffset/>
<feGaussianBlur stdDeviation="7"/>
<feComposite in2="hardAlpha" operator="out"/>
<feColorMatrix type="matrix" values="0 0 0 0 0.860577 0 0 0 0 0 0 0 0 0 0.415946 0 0 0 1 0"/>
<feBlend mode="normal" in2="BackgroundImageFix" result="effect1_dropShadow_13_141"/>
<feBlend mode="normal" in="SourceGraphic" in2="effect1_dropShadow_13_141" result="shape"/>
</filter>
<linearGradient id="paint0_linear_13_141" x1="412.956" y1="164" x2="477.956" y2="197.5" gradientUnits="userSpaceOnUse">
<stop stop-color="#2CFFD5"/>
<stop offset="0.249143" stop-color="#2EFFD9"/>
<stop offset="1" stop-color="#00FF90"/>
</linearGradient>
<linearGradient id="paint1_linear_13_141" x1="472.456" y1="60.5" x2="212.456" y2="200" gradientUnits="userSpaceOnUse">
<stop stop-color="#00FF90"/>
<stop offset="0.490373" stop-color="#41FFF5"/>
<stop offset="0.752954" stop-color="#FF00EE"/>
</linearGradient>
<linearGradient id="paint2_linear_13_141" x1="472.456" y1="60.5" x2="212.456" y2="200" gradientUnits="userSpaceOnUse">
<stop stop-color="#00FF90"/>
<stop offset="0.490373" stop-color="#41FFF5"/>
<stop offset="0.752954" stop-color="#FF00EE"/>
</linearGradient>
<linearGradient id="paint3_linear_13_141" x1="472.456" y1="60.5" x2="209.456" y2="198.5" gradientUnits="userSpaceOnUse">
<stop stop-color="#00FF90"/>
<stop offset="0.490373" stop-color="#41FFF5"/>
<stop offset="0.752954" stop-color="#FF00EE"/>
</linearGradient>
<linearGradient id="paint4_linear_13_141" x1="204.086" y1="161.5" x2="204.086" y2="207.5" gradientUnits="userSpaceOnUse">
<stop stop-color="#79F2FF"/>
<stop offset="1" stop-color="#FF1AF0"/>
</linearGradient>
<linearGradient id="paint5_linear_13_141" x1="177.456" y1="200.5" x2="177.456" y2="218.5" gradientUnits="userSpaceOnUse">
<stop stop-color="#79F2FF"/>
<stop offset="1" stop-color="#FF1AF0"/>
</linearGradient>
<linearGradient id="paint6_linear_13_141" x1="118.706" y1="286.5" x2="118.706" y2="307" gradientUnits="userSpaceOnUse">
<stop stop-color="#79F2FF"/>
<stop offset="1" stop-color="#FF1AF0"/>
</linearGradient>
<linearGradient id="paint7_linear_13_141" x1="102.706" y1="312" x2="102.706" y2="334" gradientUnits="userSpaceOnUse">
<stop stop-color="#79F2FF"/>
<stop offset="1" stop-color="#FF1AF0"/>
</linearGradient>
<linearGradient id="paint8_linear_13_141" x1="90.9563" y1="342" x2="90.9563" y2="357" gradientUnits="userSpaceOnUse">
<stop stop-color="#79F2FF"/>
<stop offset="1" stop-color="#FF1AF0"/>
</linearGradient>
<linearGradient id="paint9_linear_13_141" x1="85.4563" y1="372.5" x2="85.4563" y2="376.5" gradientUnits="userSpaceOnUse">
<stop stop-color="#79F2FF"/>
<stop offset="1" stop-color="#FF1AF0"/>
</linearGradient>
<linearGradient id="paint10_linear_13_141" x1="78.9563" y1="459.5" x2="78.9563" y2="460.5" gradientUnits="userSpaceOnUse">
<stop stop-color="#79F2FF"/>
<stop offset="1" stop-color="#FF1AF0"/>
</linearGradient>
<linearGradient id="paint11_linear_13_141" x1="81.9563" y1="481.5" x2="81.9563" y2="489" gradientUnits="userSpaceOnUse">
<stop stop-color="#79F2FF"/>
<stop offset="1" stop-color="#FF1AF0"/>
</linearGradient>
<linearGradient id="paint12_linear_13_141" x1="87.7063" y1="506.5" x2="87.7063" y2="525" gradientUnits="userSpaceOnUse">
<stop stop-color="#79F2FF"/>
<stop offset="1" stop-color="#FF1AF0"/>
</linearGradient>
<linearGradient id="paint13_linear_13_141" x1="99.4563" y1="536.5" x2="99.4563" y2="550" gradientUnits="userSpaceOnUse">
<stop stop-color="#79F2FF"/>
<stop offset="1" stop-color="#FF1AF0"/>
</linearGradient>
<linearGradient id="paint14_linear_13_141" x1="153.956" y1="613" x2="153.956" y2="622.5" gradientUnits="userSpaceOnUse">
<stop stop-color="#79F2FF"/>
<stop offset="1" stop-color="#FF1AF0"/>
</linearGradient>
<linearGradient id="paint15_linear_13_141" x1="169.456" y1="616.5" x2="169.456" y2="656" gradientUnits="userSpaceOnUse">
<stop stop-color="#79F2FF"/>
<stop offset="1" stop-color="#FF1AF0"/>
</linearGradient>
<linearGradient id="paint16_linear_13_141" x1="191.956" y1="631.5" x2="191.956" y2="683" gradientUnits="userSpaceOnUse">
<stop stop-color="#79F2FF"/>
<stop offset="1" stop-color="#FF1AF0"/>
</linearGradient>
<linearGradient id="paint17_linear_13_141" x1="218.206" y1="658" x2="218.206" y2="680.5" gradientUnits="userSpaceOnUse">
<stop stop-color="#79F2FF"/>
<stop offset="1" stop-color="#FF1AF0"/>
</linearGradient>
<linearGradient id="paint18_linear_13_141" x1="301.456" y1="701.5" x2="301.456" y2="724.5" gradientUnits="userSpaceOnUse">
<stop stop-color="#79F2FF"/>
<stop offset="1" stop-color="#FF1AF0"/>
</linearGradient>
<linearGradient id="paint19_linear_13_141" x1="327.956" y1="690.5" x2="327.956" y2="745.5" gradientUnits="userSpaceOnUse">
<stop stop-color="#79F2FF"/>
<stop offset="1" stop-color="#FF1AF0"/>
</linearGradient>
<linearGradient id="paint20_linear_13_141" x1="354.456" y1="696" x2="354.456" y2="750.5" gradientUnits="userSpaceOnUse">
<stop stop-color="#79F2FF"/>
<stop offset="1" stop-color="#FF1AF0"/>
</linearGradient>
</defs>
</svg>
