<svg width="139" height="135" viewBox="0 0 139 135" fill="none" xmlns="http://www.w3.org/2000/svg">
<g filter="url(#filter0_d_69_407)">
<path d="M69.0825 8H69.1357C69.5989 8.38832 70.1217 8.68988 70.6023 9.05525L75.1762 12.5614C76.136 13.2977 77.153 14.0126 78.0439 14.8309C76.6319 21.9325 75.29 29.0473 74.0182 36.1751C73.1986 40.8264 72.3632 45.5049 71.8512 50.2004C71.4338 54.0277 71.3381 57.9415 71.1937 61.7873C70.9095 68.347 70.8439 74.9089 70.9969 81.4728C71.0846 84.4716 71.2252 91.8267 72.8317 94.2122C75.2253 97.7674 85.4527 101.709 89.7003 103.283C90.5481 103.597 93.3967 104.464 93.9171 104.821C94.3919 107.59 95.0707 110.326 95.6142 113.083C91.7798 115.656 72.0696 127.277 68.5659 126.6C67.9768 126.486 67.3676 126.205 66.8048 125.993C61.1567 123.875 55.4862 120.4 50.3429 117.266C47.9791 115.824 45.3902 114.326 43.1514 112.719L43.9837 107.839C44.1484 106.861 44.3524 105.874 44.4419 104.887C48.6289 103.176 63.6937 97.8534 65.9589 94.3721C66.8558 92.9928 67.1115 85.656 67.2014 83.7185C67.5087 77.0682 67.6394 70.4145 67.5937 63.7573C67.5613 60.2686 67.5529 56.7507 67.2437 53.2741C67.0486 51.0801 66.6831 48.9036 66.3271 46.7309C65.8502 43.8461 65.3561 40.9642 64.8449 38.0851C63.4417 30.1244 61.9952 22.1715 60.5053 14.2265C61.1209 13.6336 61.8855 13.1351 62.5731 12.6266C64.139 11.4826 65.7113 10.347 67.2897 9.22006C67.8796 8.80178 68.5133 8.44531 69.0825 8ZM58.8936 115.584C59.0322 115.787 59.1369 115.978 59.3655 116.09C59.4689 116.066 59.4929 116.086 59.5541 115.99C59.889 115.467 59.6585 114.17 59.4957 113.611C59.2209 112.665 58.6667 111.829 57.783 111.357C56.9152 110.892 55.7885 110.679 54.8093 110.705C54.3954 110.761 53.625 110.918 53.3654 111.283C53.2986 111.376 53.3258 111.387 53.3449 111.492C53.6853 111.726 54.4142 111.821 54.827 111.943C56.9929 112.575 57.7637 113.766 58.8936 115.584ZM80.1318 115.444C80.9636 114.033 81.8199 112.768 83.5043 112.346C84.0065 112.219 85.3639 112.237 85.6314 111.844C85.5484 111.5 85.2801 111.351 84.9918 111.173C84.6877 110.986 84.3555 110.888 83.9944 110.911C82.7602 111.027 81.0565 111.406 80.2336 112.405C79.5239 113.266 79.1949 114.553 79.3105 115.653C79.331 115.848 79.363 116.008 79.4547 116.184L79.5605 116.233C79.8135 116.055 79.9827 115.712 80.1318 115.444Z" fill="black"/>
</g>
<path d="M69.0824 8H69.1356C69.5988 8.38832 70.1217 8.68988 70.6021 9.05525L75.1761 12.5614C76.136 13.2977 77.153 14.0126 78.0438 14.8309C78.4886 12.8729 78.7947 10.8847 79.248 8.9278C88.6736 13.701 97.9395 18.7642 107.046 24.1177C110.267 26.0489 115.501 29.1409 118.025 31.7373C118.566 32.2931 118.897 32.8098 119.131 33.5486C120.051 36.4528 120.326 41.9121 120.515 45.1097C120.84 51.2095 121.01 57.3136 121.025 63.4218C121.04 69.5302 120.901 75.6349 120.607 81.7362C120.479 84.0208 120.266 89.4101 119.271 91.3093C117.186 95.2882 103.27 101.149 98.8176 102.988C97.3696 103.586 95.8516 104.325 94.3488 104.759C94.2046 104.801 94.0663 104.819 93.9171 104.821C94.3918 107.59 95.0706 110.326 95.6141 113.083C91.7796 115.656 72.0694 127.277 68.5658 126.6C67.9767 126.486 67.3675 126.205 66.8047 125.993C61.1565 123.875 55.4861 120.4 50.3427 117.266C47.9791 115.824 45.3901 114.326 43.1512 112.719L43.9835 107.839C44.1483 106.861 44.3523 105.874 44.4418 104.887C43.9467 104.579 43.2317 104.397 42.6822 104.194C41.5493 103.78 40.421 103.354 39.2971 102.917C34.8757 101.176 21.2006 95.7505 19.1361 91.7966C18.1711 89.9481 17.9211 86.5102 17.723 84.4281C17.3177 79.7317 17.0928 75.0267 17.0482 70.3132C16.9084 62.6591 17.0726 55.0114 17.541 47.3703C17.8004 43.4809 18.1659 37.694 19.3273 34.115C19.6176 33.2205 19.9745 32.5447 20.6207 31.8574C23.2874 29.0204 28.5232 25.9245 31.9084 23.8912C40.9343 18.5814 50.136 13.5936 59.5134 8.92779C59.9291 10.6574 60.1926 12.474 60.5052 14.2265C61.1208 13.6336 61.8854 13.1351 62.573 12.6266C64.139 11.4826 65.7111 10.347 67.2896 9.22006C67.8795 8.80178 68.5131 8.44531 69.0824 8ZM60.5052 14.2265C61.9952 22.1715 63.4417 30.1244 64.8448 38.0851C65.356 40.9642 65.85 43.8461 66.3269 46.7309C66.683 48.9036 67.0484 51.0801 67.2436 53.2741C67.5527 56.7507 67.5612 60.2686 67.5935 63.7573C67.6394 70.4145 67.5086 77.0682 67.2013 83.7185C67.1114 85.656 66.8557 92.9928 65.9588 94.3721C63.6936 97.8534 48.6288 103.176 44.4418 104.887C44.3523 105.874 44.1483 106.861 43.9835 107.839L43.1512 112.719C45.3901 114.326 47.9791 115.824 50.3427 117.266C55.4861 120.4 61.1565 123.875 66.8047 125.993C67.3675 126.205 67.9767 126.486 68.5658 126.6C72.0694 127.277 91.7796 115.656 95.6141 113.083C95.0706 110.326 94.3918 107.59 93.9171 104.821C93.3966 104.464 90.548 103.597 89.7003 103.283C85.4525 101.709 75.2253 97.7674 72.8316 94.2122C71.2251 91.8267 71.0845 84.4716 70.9969 81.4728C70.8438 74.9089 70.9094 68.347 71.1937 61.7873C71.338 57.9415 71.4337 54.0277 71.8511 50.2004C72.363 45.5049 73.1985 40.8264 74.0181 36.1751C75.2898 29.0473 76.6317 21.9325 78.0438 14.8309C77.153 14.0126 76.136 13.2977 75.1761 12.5614L70.6021 9.05525C70.1217 8.68988 69.5988 8.38832 69.1356 8H69.0824C68.5131 8.44531 67.8795 8.80178 67.2896 9.22006C65.7111 10.347 64.139 11.4826 62.573 12.6266C61.8854 13.1351 61.1208 13.6336 60.5052 14.2265Z" fill="#E43538"/>
<path d="M101.848 78.8198C102.64 79.0666 105.044 80.5233 105.931 81.0114L106.11 85.5935L102.372 87.9019L102.247 87.9329C101.409 87.535 99.0129 85.8234 98.1963 85.1973L98.1982 81.3703L101.848 78.8198Z" fill="black"/>
<path d="M102.383 34.4413C103.011 34.5776 105.738 36.2085 106.477 36.6135C106.569 38.1346 106.544 39.6665 106.679 41.1839C105.434 41.8751 104.151 42.5119 102.887 43.1699C102.773 43.2333 102.638 43.3248 102.507 43.3405C102.184 43.3792 99.2446 41.1744 98.7526 40.8222C98.7268 39.5436 98.7517 38.2594 98.7539 36.9802L102.383 34.4413Z" fill="black"/>
<path d="M83.2291 56.0993C83.6119 56.1114 86.7417 57.9379 87.3355 58.2637C87.4202 59.7879 87.4582 61.3177 87.5159 62.8433C86.2625 63.5493 84.9859 64.2201 83.7218 64.9072L83.5402 64.9947C83.0638 64.9306 80.227 62.8899 79.6044 62.4718L79.604 58.6311C80.7782 57.7505 82.0194 56.9326 83.2291 56.0993Z" fill="black"/>
<path d="M36.3199 78.6237C37.585 79.4082 38.7937 80.3293 40.0133 81.1846L40.0164 85.0344C38.6963 86.0366 37.3361 87.0512 35.9561 87.969L32.1094 85.4039C32.1592 83.8745 32.2218 82.3457 32.297 80.8174L36.3199 78.6237Z" fill="black"/>
<path d="M54.8725 55.8937C55.3912 56.0223 57.9995 58.0105 58.6064 58.4375L58.6098 62.2889C57.9153 62.8528 57.1736 63.3733 56.4582 63.9117C56.02 64.2412 55.5537 64.6595 55.0796 64.9255C54.9283 65.0102 54.9185 65.0062 54.7628 64.9551C53.4225 64.1633 52.0398 63.4436 50.7021 62.6455C50.7508 61.1169 50.8148 59.589 50.894 58.0617C52.2385 57.381 53.5553 56.6258 54.8725 55.8937Z" fill="black"/>
<path d="M35.7126 34.4485C36.1865 34.5182 38.9104 36.5895 39.4668 36.9828L39.4713 40.8293C38.8905 41.2448 36.0243 43.4419 35.5583 43.5598C34.218 42.7818 32.885 41.9916 31.5593 41.1888L31.7371 36.6045C33.0668 35.8938 34.3919 35.1752 35.7126 34.4485Z" fill="black"/>
<g filter="url(#filter1_d_69_407)">
<path d="M105.216 102.075L105.368 102.108C105.944 102.753 107.683 106.337 108.049 107.308C108.175 107.639 108.117 107.907 107.962 108.218C107.604 108.934 106.774 109.569 106.01 109.79C105.451 109.952 104.968 109.89 104.464 109.609C103.551 108.825 101.656 105.277 101.083 104.091C102.414 103.39 103.804 102.59 105.216 102.075Z" fill="black"/>
</g>
<g filter="url(#filter2_d_69_407)">
<path d="M33.1357 102.258C34.3592 102.511 36.0926 103.389 37.3003 103.873C37.0082 105 35.1803 108.728 34.4503 109.501C34.2745 109.629 34.0946 109.733 33.8853 109.799C33.3339 109.975 32.7343 109.841 32.2332 109.58C31.4196 109.158 30.8716 108.497 30.5933 107.634C30.7556 107.092 31.0618 106.569 31.3054 106.059C31.9099 104.791 32.5679 103.542 33.1357 102.258Z" fill="black"/>
</g>
<g filter="url(#filter3_d_69_407)">
<path d="M113.035 98.2075C113.419 98.3871 115.428 102.185 115.707 102.807C115.911 103.261 115.933 103.619 115.732 104.094C115.466 104.721 114.784 105.262 114.159 105.516C113.598 105.744 113.169 105.658 112.636 105.438C111.291 104.494 110.09 101.724 109.363 100.23C110.246 99.5301 111.976 98.6999 113.035 98.2075Z" fill="black"/>
</g>
<g filter="url(#filter4_d_69_407)">
<path d="M25.3817 98.778C26.3517 98.9344 28.1022 100.168 29.1948 100.554C28.6212 101.981 27.4667 104.283 26.3407 105.291C26.1688 105.417 25.9861 105.521 25.7816 105.588C25.2446 105.761 24.7547 105.607 24.2797 105.35C23.703 105.038 23.1578 104.569 22.9866 103.912C22.9 103.578 22.9302 103.243 23.0353 102.918C23.3733 101.873 24.7527 99.8385 25.3817 98.778Z" fill="black"/>
</g>
<defs>
<filter id="filter0_d_69_407" x="36.6514" y="0.5" width="67.4629" height="133.628" filterUnits="userSpaceOnUse" color-interpolation-filters="sRGB">
<feFlood flood-opacity="0" result="BackgroundImageFix"/>
<feColorMatrix in="SourceAlpha" type="matrix" values="0 0 0 0 0 0 0 0 0 0 0 0 0 0 0 0 0 0 127 0" result="hardAlpha"/>
<feOffset dx="1"/>
<feGaussianBlur stdDeviation="3.75"/>
<feComposite in2="hardAlpha" operator="out"/>
<feColorMatrix type="matrix" values="0 0 0 0 1 0 0 0 0 1 0 0 0 0 1 0 0 0 1 0"/>
<feBlend mode="normal" in2="BackgroundImageFix" result="effect1_dropShadow_69_407"/>
<feBlend mode="normal" in="SourceGraphic" in2="effect1_dropShadow_69_407" result="shape"/>
</filter>
<filter id="filter1_d_69_407" x="93.5828" y="95.5754" width="22.0349" height="22.8023" filterUnits="userSpaceOnUse" color-interpolation-filters="sRGB">
<feFlood flood-opacity="0" result="BackgroundImageFix"/>
<feColorMatrix in="SourceAlpha" type="matrix" values="0 0 0 0 0 0 0 0 0 0 0 0 0 0 0 0 0 0 127 0" result="hardAlpha"/>
<feOffset dy="1"/>
<feGaussianBlur stdDeviation="3.75"/>
<feComposite in2="hardAlpha" operator="out"/>
<feColorMatrix type="matrix" values="0 0 0 0 1 0 0 0 0 1 0 0 0 0 1 0 0 0 1 0"/>
<feBlend mode="normal" in2="BackgroundImageFix" result="effect1_dropShadow_69_407"/>
<feBlend mode="normal" in="SourceGraphic" in2="effect1_dropShadow_69_407" result="shape"/>
</filter>
<filter id="filter2_d_69_407" x="23.0933" y="95.7585" width="21.707" height="22.6202" filterUnits="userSpaceOnUse" color-interpolation-filters="sRGB">
<feFlood flood-opacity="0" result="BackgroundImageFix"/>
<feColorMatrix in="SourceAlpha" type="matrix" values="0 0 0 0 0 0 0 0 0 0 0 0 0 0 0 0 0 0 127 0" result="hardAlpha"/>
<feOffset dy="1"/>
<feGaussianBlur stdDeviation="3.75"/>
<feComposite in2="hardAlpha" operator="out"/>
<feColorMatrix type="matrix" values="0 0 0 0 1 0 0 0 0 1 0 0 0 0 1 0 0 0 1 0"/>
<feBlend mode="normal" in2="BackgroundImageFix" result="effect1_dropShadow_69_407"/>
<feBlend mode="normal" in="SourceGraphic" in2="effect1_dropShadow_69_407" result="shape"/>
</filter>
<filter id="filter3_d_69_407" x="101.863" y="91.7075" width="21.5085" height="22.4432" filterUnits="userSpaceOnUse" color-interpolation-filters="sRGB">
<feFlood flood-opacity="0" result="BackgroundImageFix"/>
<feColorMatrix in="SourceAlpha" type="matrix" values="0 0 0 0 0 0 0 0 0 0 0 0 0 0 0 0 0 0 127 0" result="hardAlpha"/>
<feOffset dy="1"/>
<feGaussianBlur stdDeviation="3.75"/>
<feComposite in2="hardAlpha" operator="out"/>
<feColorMatrix type="matrix" values="0 0 0 0 1 0 0 0 0 1 0 0 0 0 1 0 0 0 1 0"/>
<feBlend mode="normal" in2="BackgroundImageFix" result="effect1_dropShadow_69_407"/>
<feBlend mode="normal" in="SourceGraphic" in2="effect1_dropShadow_69_407" result="shape"/>
</filter>
<filter id="filter4_d_69_407" x="15.436" y="92.278" width="21.2588" height="21.8835" filterUnits="userSpaceOnUse" color-interpolation-filters="sRGB">
<feFlood flood-opacity="0" result="BackgroundImageFix"/>
<feColorMatrix in="SourceAlpha" type="matrix" values="0 0 0 0 0 0 0 0 0 0 0 0 0 0 0 0 0 0 127 0" result="hardAlpha"/>
<feOffset dy="1"/>
<feGaussianBlur stdDeviation="3.75"/>
<feComposite in2="hardAlpha" operator="out"/>
<feColorMatrix type="matrix" values="0 0 0 0 1 0 0 0 0 1 0 0 0 0 1 0 0 0 1 0"/>
<feBlend mode="normal" in2="BackgroundImageFix" result="effect1_dropShadow_69_407"/>
<feBlend mode="normal" in="SourceGraphic" in2="effect1_dropShadow_69_407" result="shape"/>
</filter>
</defs>
</svg>
